<?xml version="1.0" encoding="UTF-8"?>
<!DOCTYPE svg PUBLIC "-//W3C//DTD SVG 1.1//EN" "http://www.w3.org/Graphics/SVG/1.1/DTD/svg11.dtd">
<!-- Creator: CorelDRAW -->
<svg xmlns="http://www.w3.org/2000/svg" xml:space="preserve" width="1.45952in" height="0.430492in" version="1.1" style="shape-rendering:geometricPrecision; text-rendering:geometricPrecision; image-rendering:optimizeQuality; fill-rule:evenodd; clip-rule:evenodd"
viewBox="0 0 9.59 2.83"
 xmlns:xlink="http://www.w3.org/1999/xlink"
 xmlns:xodm="http://www.corel.com/coreldraw/odm/2003">
 <defs>
  <style type="text/css">
   <![CDATA[
    .fil1 {fill:#7EAA3A}
    .fil3 {fill:#EA5432}
    .fil2 {fill:#FBDB43}
    .fil0 {fill:white}
    .fil4 {fill:white;fill-rule:nonzero}
   ]]>
  </style>
 </defs>
 <g id="Layer_x0020_1">
  <metadata id="CorelCorpID_0Corel-Layer"/>
  <g id="_1619476984768">
   <path class="fil0" d="M6.05 1.86c-0.04,-0.01 -0.45,0.02 -0.52,0.02 -0.19,0.01 -0.37,0.03 -0.46,-0.1 -0.05,-0.07 -0.04,-0.13 -0.04,-0.22 -0,-0.08 -0,-0.17 0,-0.26 0,-0.19 -0,-0.37 -0,-0.56 -0,-0.18 -0.03,-0.38 0.09,-0.47 0.12,-0.09 0.31,-0.07 0.48,-0.07 0.28,-0.01 0.54,-0.02 0.82,-0.02 0.04,-0 0.08,-0 0.12,0.02 0.03,0.01 0.06,0.05 0.07,0.07 0.02,0.02 0.02,0.03 0.03,0.06 0.05,0.39 0.08,0.83 0.07,1.23 0,0.06 -0.02,0.23 -0.12,0.26 -0.08,0.02 -0.26,0.02 -0.35,0.03 0.04,0.05 0.14,0.04 0.18,0.09 0.02,0.03 0.03,0.05 0.08,0.06 0.12,0 0.22,-0.03 0.3,-0.11 0.09,-0.09 0.08,-0.1 0.13,-0.15 0.01,-0.34 0.04,-1 -0.01,-1.31 -0.02,-0.12 -0.05,-0.19 -0.1,-0.26 -0.03,-0.06 -0.12,-0.12 -0.19,-0.14 -0.1,-0.03 -0.22,-0.02 -0.32,-0.01 -0.22,0.01 -0.44,0.02 -0.65,0.03 -0.2,0.01 -0.44,-0.01 -0.59,0.09 -0.16,0.11 -0.13,0.33 -0.13,0.55 -0.01,0.22 -0.01,0.44 -0.01,0.66 -0,0.19 -0.02,0.42 0.13,0.54 0.16,0.13 0.32,0.11 0.56,0.12 0.11,0 0.23,0 0.34,0 0.03,-0 0.06,-0 0.09,-0 0.04,0 0.06,0.01 0.06,-0.02 0,-0.03 -0.02,-0.04 -0.03,-0.06 -0.02,-0.02 -0.01,-0.02 -0.01,-0.06z"/>
   <path class="fil1" d="M5.6 1.11c-0.04,0.02 -0.14,0.39 -0.15,0.46 -0.01,0.09 0.06,0.09 0.18,0.12 0.07,0.02 0.15,0.05 0.23,0.07 0.13,0.04 0.15,0.01 0.1,-0.11 -0.05,-0.11 -0.15,-0.28 -0.2,-0.4 -0.02,-0.05 -0.09,-0.18 -0.15,-0.14z"/>
   <path class="fil2" d="M5.93 1.08c-0,0.06 0.03,0.14 0.06,0.18 0.03,0.05 0.06,0.11 0.09,0.16 0.03,0.06 0.05,0.1 0.08,0.16 0.03,0.05 0.05,0.13 0.13,0.11 0.01,-0.06 -0,-0.08 0.04,-0.13 0.02,-0.02 0.03,-0.02 0.04,-0.04 0.02,-0.02 0.01,-0.04 0.02,-0.07 0.01,-0.02 0.12,-0.17 0.04,-0.25 -0.03,-0.03 -0.29,-0.1 -0.37,-0.13 -0.01,-0.01 -0.05,-0.02 -0.07,-0.02 -0.02,-0 -0.04,0 -0.05,0.01 -0.01,0.01 -0.01,0 -0.01,0.01z"/>
   <path class="fil3" d="M6.01 0.97c-0.06,-0.06 -0.19,-0.09 -0.14,-0.35 0.05,-0.22 0.16,-0.34 -0.02,-0.34 -0.04,0.2 -0.11,0.34 -0.13,0.47 -0.02,0.11 0.01,0.17 0.06,0.22 0.03,0.03 0.06,0.04 0.11,0.04 0.04,-0 0.09,-0.02 0.11,-0.04z"/>
   <path class="fil3" d="M6.15 0.84c-0.03,-0.04 -0.05,-0.04 -0.08,-0.1 -0.09,-0.19 0.11,-0.35 -0.04,-0.41 -0.03,0.06 -0.11,0.31 -0.11,0.4 0,0.12 0.11,0.23 0.18,0.18 0.02,-0.01 0.05,-0.05 0.05,-0.07z"/>
   <path class="fil0" d="M5.48 0.73l0.02 -0.23 -0.01 -0.03c-0.04,0.01 -0.03,0.05 -0.04,0.14l-0.06 0.49c-0.01,0.1 -0.08,0.6 -0.07,0.66l0.05 0.01c0.04,-0.06 0.05,-0.42 0.06,-0.51 0.01,-0.17 0.03,-0.36 0.04,-0.53z"/>
   <path class="fil0" d="M5.55 0.69l0.03 0.07 0.11 0.23c0.02,0.02 0.08,0.15 0.09,0.19 0.04,0.1 0.26,0.55 0.29,0.58l0.04 -0c0.02,-0.06 -0.04,-0.14 -0.08,-0.22 -0.05,-0.1 -0.33,-0.61 -0.35,-0.66 -0.03,-0.03 -0.07,-0.12 -0.09,-0.17l-0.02 -0.05c-0.01,-0.01 -0.01,-0.02 -0.02,-0.04 -0.01,-0.03 -0.01,-0.02 -0.03,-0.03 -0.02,0.03 0.02,0.07 0.03,0.11z"/>
   <path class="fil3" d="M5.59 0.69c0.03,0.04 0.06,0.13 0.09,0.17 -0.01,-0.21 0.13,-0.39 0.13,-0.57 -0.07,-0.01 -0.13,0.03 -0.17,0.06 -0.01,0.06 0.01,0.11 0,0.19l-0.03 0.12c-0,0.01 -0,0.02 -0.01,0.02 -0.01,0.02 0,0 -0.01,0.02z"/>
   <path class="fil3" d="M6.14 0.44c-0.02,0.04 -0.04,0.14 -0.04,0.18 0,0.05 0.03,0.16 0.07,0.15 0.07,-0.01 0.03,-0.31 -0.04,-0.33z"/>
   <path class="fil3" d="M5.5 0.5l-0.02 0.23c0.02,0.02 0.01,0.03 0.03,0.05l0.04 -0.1c-0.01,-0.04 -0.05,-0.08 -0.03,-0.11 0.02,0.01 0.01,0 0.03,0.03 0.01,0.02 0.01,0.03 0.02,0.04 0,-0.03 0.07,-0.23 0.01,-0.22 -0.03,0 -0.06,0.07 -0.07,0.1l-0 -0.01z"/>
   <path class="fil3" d="M5.69 0.98l-0.11 -0.23c-0.07,0.11 0.03,0.2 0.11,0.23z"/>
   <path class="fil4" d="M4.43 0.8c0.04,0 0.08,-0 0.11,-0.01 0.03,-0.01 0.06,0 0.09,0.02 0.02,0.01 0.03,0.03 0.04,0.05 0,0.02 0.01,0.04 0.01,0.05 0,0.07 0,0.13 0,0.2 -0,0.06 -0.01,0.13 -0.01,0.19 0,0.04 0,0.09 0,0.13 0,0.04 0,0.09 0,0.13 0,0.11 -0,0.19 -0.01,0.24 -0.01,0.05 -0.02,0.08 -0.03,0.1 -0.01,0.02 -0.02,0.03 -0.04,0.03 -0.02,0.01 -0.03,0.01 -0.05,0.01 -0.04,0.01 -0.08,0.01 -0.12,0.01l-0.09 0c-0.02,0 -0.04,0 -0.07,0 -0.03,0 -0.06,-0 -0.09,-0 -0.03,-0 -0.06,-0 -0.09,-0 -0.03,-0 -0.06,-0 -0.08,-0.01 -0.06,-0.01 -0.12,-0.02 -0.18,-0.05 -0.07,-0.02 -0.13,-0.05 -0.2,-0.09 -0.07,-0.04 -0.13,-0.08 -0.18,-0.13 -0.06,-0.05 -0.1,-0.1 -0.14,-0.16 -0.03,-0.04 -0.05,-0.08 -0.07,-0.13 -0.02,-0.05 -0.04,-0.1 -0.05,-0.16 -0.01,-0.06 -0.03,-0.11 -0.03,-0.17 -0.01,-0.06 -0.01,-0.11 -0.01,-0.16 0,-0.02 0,-0.05 0.01,-0.1 0,-0.04 0.01,-0.09 0.03,-0.15 0.02,-0.06 0.04,-0.11 0.08,-0.17 0.04,-0.06 0.09,-0.12 0.15,-0.18 0.03,-0.03 0.07,-0.06 0.1,-0.08 0.04,-0.02 0.09,-0.05 0.14,-0.06 0.06,-0.02 0.12,-0.03 0.2,-0.04 0.08,-0.01 0.17,-0.02 0.27,-0.02 0.11,0 0.2,0 0.24,0.01 0.05,0 0.08,0.01 0.09,0.01 0.03,0.01 0.06,0.01 0.08,0.02 0.02,0.01 0.04,0.03 0.05,0.05 0.01,0.03 0.02,0.05 0.02,0.08 0,0.03 0,0.06 0,0.1l0 0.08c0,0.07 -0.02,0.1 -0.09,0.1 -0.03,0 -0.06,-0.01 -0.09,-0.02 -0.03,-0.01 -0.06,-0.02 -0.09,-0.02 -0.02,-0.01 -0.06,-0.01 -0.11,-0.02 -0.05,-0.01 -0.1,-0.01 -0.14,-0.01 -0.04,0 -0.09,0 -0.13,0.01 -0.05,0.01 -0.09,0.02 -0.13,0.04 -0.05,0.02 -0.09,0.05 -0.13,0.08 -0.04,0.03 -0.07,0.08 -0.09,0.14 -0.01,0.02 -0.02,0.04 -0.03,0.08 -0.01,0.04 -0.02,0.09 -0.02,0.15 0,0.05 0.01,0.1 0.02,0.14 0.01,0.04 0.03,0.07 0.05,0.1 0.02,0.04 0.04,0.07 0.07,0.11 0.03,0.04 0.08,0.08 0.15,0.12 0.04,0.02 0.08,0.04 0.13,0.05 0.05,0.01 0.11,0.02 0.18,0.02 0.02,0 0.04,-0 0.06,-0.01 0.02,-0.01 0.04,-0.02 0.05,-0.03 0.01,-0.01 0.02,-0.03 0.03,-0.05 0,-0.02 0.01,-0.04 0.01,-0.06 0,-0.01 0,-0.02 0,-0.04 0,-0.02 -0,-0.03 -0,-0.05 -0,-0.02 -0,-0.03 -0.01,-0.05 -0,-0.01 -0.01,-0.03 -0.02,-0.04 -0.01,-0.02 -0.03,-0.03 -0.04,-0.04 -0.01,-0 -0.03,-0.01 -0.04,-0.01l-0.04 0c-0.01,0 -0.02,0 -0.03,0 -0.01,0 -0.02,-0 -0.03,-0.01 -0.01,-0.01 -0.02,-0.02 -0.02,-0.03 -0,-0.01 -0,-0.03 -0,-0.05 0,-0.02 0,-0.04 0,-0.06 0,-0.02 0,-0.04 0,-0.05l0 -0.06c0,-0.03 0,-0.05 0.01,-0.06 0.01,-0.02 0.01,-0.03 0.02,-0.04 0.01,-0.01 0.02,-0.01 0.03,-0.02 0.01,-0 0.02,-0.01 0.03,-0.01l0.04 0c0.04,0 0.07,0 0.08,0.01 0.01,0 0.03,0 0.05,0l0.08 0z"/>
   <path class="fil4" d="M2.47 0.72c-0,-0.01 -0.01,-0.03 -0.02,-0.05 -0.01,-0.02 -0.01,-0.03 -0.02,-0.04 -0.01,-0.01 -0.02,-0.01 -0.04,-0.01 -0.01,0 -0.03,0.01 -0.05,0.04 -0.02,0.02 -0.04,0.08 -0.05,0.16 -0,0.01 -0,0.02 -0,0.03 -0,0.01 -0,0.01 -0,0.02 -0,0.01 -0,0.02 -0.01,0.04 -0,0.01 -0.01,0.03 -0.01,0.06 -0.01,0.03 -0.01,0.06 -0.02,0.09 -0.01,0.02 -0.01,0.04 -0.01,0.06l0 0.02c0,0.01 -0,0.01 -0,0.02 -0,0 -0,0.01 -0,0.02 0,0.01 0,0.02 0,0.03 0,0.01 0.01,0.02 0.01,0.03 0,0.01 0.01,0.02 0.03,0.03 0.02,0.01 0.05,0.02 0.09,0.02 0.01,0 0.02,0 0.03,0 0.01,0 0.03,-0 0.04,-0 0.01,-0 0.03,-0 0.04,-0 0.01,-0 0.02,-0 0.03,-0.01 0.03,-0.01 0.04,-0.02 0.04,-0.04 0,-0.02 0.01,-0.03 0.01,-0.05 0,-0.02 -0,-0.04 -0,-0.06 -0,-0.01 -0,-0.03 -0.01,-0.04 -0,-0.01 -0,-0.03 -0.01,-0.04 -0,-0.01 -0.01,-0.03 -0.01,-0.04 -0.01,-0.04 -0.02,-0.07 -0.02,-0.08 -0,-0.02 -0.01,-0.03 -0.01,-0.05l-0.04 -0.12zm-0.02 -0.61c0.02,0 0.03,0 0.04,0 0.01,0 0.02,0 0.04,0 0.01,0 0.02,-0 0.03,-0 0.01,-0 0.02,-0 0.03,-0 0.01,0 0.04,0 0.07,0.01 0.03,0 0.05,0.01 0.07,0.03 0.01,0.01 0.02,0.02 0.03,0.04 0.01,0.02 0.02,0.03 0.02,0.05 0.01,0.01 0.01,0.03 0.01,0.05 0,0.02 0.01,0.04 0.02,0.07l0.02 0.09c0.01,0.03 0.02,0.05 0.02,0.07 0.01,0.02 0.01,0.05 0.02,0.09 0,0.02 0,0.04 0.01,0.05 0,0.01 0.01,0.03 0.02,0.06 0.01,0.03 0.02,0.05 0.02,0.06 0,0.02 0.01,0.03 0.01,0.04 0,0.01 0,0.02 0,0.03 0,0.01 0,0.02 0,0.03 0.01,0.08 0.02,0.14 0.04,0.18 0.01,0.05 0.02,0.08 0.02,0.11l0.04 0.2c0,0.01 0.01,0.03 0.01,0.04 0,0.01 0.01,0.03 0.01,0.04 0,0.01 0.01,0.02 0.01,0.03 0,0.01 0,0.02 0.01,0.03l0.05 0.23c0,0.02 0.01,0.04 0.01,0.07 0.01,0.03 0,0.05 -0.01,0.08 -0.01,0.01 -0.01,0.03 -0.02,0.03 -0.01,0.01 -0.02,0.01 -0.02,0.02 -0.01,0.01 -0.03,0.01 -0.04,0.01 -0.02,0 -0.04,0 -0.08,0l-0.05 0c-0,0 -0.01,0 -0.02,0 -0.01,0 -0.03,0 -0.04,0 -0.01,0 -0.03,-0 -0.04,-0 -0.01,-0 -0.02,-0 -0.03,-0 -0.01,-0 -0.03,-0.01 -0.03,-0.01 -0.01,-0 -0.01,-0.01 -0.02,-0.02 -0.01,-0.01 -0.02,-0.03 -0.02,-0.03 -0,-0.01 -0,-0.02 -0.01,-0.03l-0.05 -0.14c-0.01,-0.02 -0.01,-0.03 -0.02,-0.03 -0.01,-0.01 -0.01,-0.01 -0.02,-0.01 -0,-0 -0.01,-0 -0.02,-0 -0.01,-0 -0.02,-0 -0.03,-0 -0.01,-0 -0.02,-0 -0.03,-0 -0.01,-0 -0.02,-0 -0.02,-0l-0.07 0c-0.02,0 -0.04,0 -0.06,0 -0.02,0 -0.04,0 -0.07,0 -0.02,0 -0.04,0 -0.06,0.01 -0.02,0 -0.04,0.01 -0.05,0.01 -0.02,0.01 -0.03,0.01 -0.05,0.02 -0.01,0.01 -0.03,0.02 -0.03,0.04 -0.01,0.01 -0.02,0.03 -0.02,0.05 -0,0.02 -0.01,0.05 -0.02,0.09 -0,0.01 -0,0.01 -0.01,0.03 -0,0.01 -0.01,0.02 -0.02,0.03 -0,0 -0.01,0.01 -0.02,0.01 -0.01,0 -0.01,0 -0.02,0 -0.01,0 -0.02,-0 -0.03,-0 -0.01,-0 -0.02,-0 -0.03,-0 -0.03,-0 -0.07,-0 -0.1,0 -0.03,0 -0.07,0 -0.1,0 -0.02,-0 -0.04,-0 -0.05,-0.01 -0.01,-0 -0.03,-0.01 -0.04,-0.02 -0.01,-0.01 -0.01,-0.02 -0.02,-0.03 -0.01,-0.01 -0.01,-0.02 -0.01,-0.03 0,-0 0,-0.02 0,-0.03 0,-0.02 0.01,-0.03 0.01,-0.03 0,-0.01 0,-0.01 0,-0.02 0,-0 0,-0.01 0,-0.02 0,-0.01 0.01,-0.03 0.01,-0.04 0,-0.01 0,-0.03 0.01,-0.04l0.01 -0.07c0.01,-0.04 0.02,-0.07 0.02,-0.1 0,-0.02 0.01,-0.04 0.01,-0.06 0.01,-0.05 0.02,-0.09 0.02,-0.11 0.01,-0.02 0.02,-0.05 0.02,-0.07 0,-0.01 0,-0.02 0.01,-0.03 0,-0.01 0,-0.01 0,-0.02 0,-0.01 0,-0.02 0.01,-0.03 0,-0.01 0.01,-0.03 0.01,-0.06 0,-0.01 0.01,-0.03 0.01,-0.05 0,-0.02 0.01,-0.04 0.01,-0.05 0.01,-0.06 0.03,-0.11 0.04,-0.15 0.01,-0.05 0.02,-0.1 0.04,-0.14 0.01,-0.05 0.03,-0.1 0.04,-0.16 0.01,-0.06 0.03,-0.13 0.04,-0.2 0.01,-0.05 0.02,-0.1 0.03,-0.13 0.01,-0.03 0.03,-0.07 0.06,-0.09 0.02,-0.01 0.03,-0.02 0.04,-0.02 0.01,-0 0.02,-0 0.04,-0 0.01,0 0.02,-0 0.02,-0 0.01,-0 0.01,-0 0.02,-0 0.01,-0 0.02,-0 0.03,-0 0.01,-0 0.03,-0 0.05,-0l0.18 0z"/>
   <path class="fil4" d="M0.79 1.42c-0.02,-0.03 -0.03,-0.05 -0.04,-0.07 -0.01,-0.02 -0.03,-0.05 -0.06,-0.09 -0.02,-0.03 -0.04,-0.06 -0.05,-0.07 -0.01,-0.01 -0.02,-0.03 -0.03,-0.05l-0.02 -0.04c-0.02,-0.04 -0.04,-0.07 -0.05,-0.09 -0.01,-0.01 -0.01,-0.02 -0.02,-0.03 -0,-0 -0.01,-0.01 -0.02,-0.01 -0.01,-0 -0.01,-0.01 -0.02,-0.01 -0.01,0 -0.02,0.01 -0.03,0.02 -0,0.01 -0.01,0.02 -0.01,0.02 -0,0.01 -0,0.02 -0.01,0.04 -0,0.02 -0,0.04 -0,0.07l0 0.05c0,0.03 0,0.05 0,0.07 0,0.01 0,0.03 0,0.05l0 0.04c0,0.02 -0,0.04 -0,0.05 -0,0.02 -0,0.04 -0,0.05 0,0.01 0,0.03 0,0.04 0,0.01 0,0.02 0,0.04l0.01 0.27c0,0.01 0,0.02 0,0.03 0,0.01 0,0.02 0,0.03 0,0.02 0,0.03 0,0.04 0,0.01 0,0.01 0,0.02 0,0.02 -0,0.04 -0.01,0.05 -0.01,0.01 -0.02,0.02 -0.03,0.03 -0.02,0.01 -0.04,0.01 -0.07,0.01 -0.03,-0 -0.06,-0 -0.07,-0l-0.2 0c-0.01,0 -0.02,-0 -0.03,-0.01 -0,-0 -0.01,-0.01 -0.01,-0.01 -0.01,-0.02 -0.02,-0.03 -0.02,-0.05 0,-0.03 0,-0.04 0,-0.04 0,-0 0,-0.01 0,-0.02l0 -0.07 0 -0.43c0,-0.03 -0,-0.07 -0,-0.1 -0,-0.03 -0,-0.07 -0,-0.1l0 -0.04c0,-0.02 0,-0.04 0,-0.06 0,-0.02 0,-0.04 0,-0.06 0,-0.01 0,-0.02 0,-0.03 0,-0.01 0,-0.02 0,-0.03 0,-0.03 -0,-0.05 -0,-0.08 -0,-0.03 -0,-0.05 -0.01,-0.08 -0,-0.04 -0.01,-0.08 -0.01,-0.12 0,-0.04 0,-0.08 0,-0.12l0 -0.14c0,-0.02 -0,-0.04 -0,-0.05 -0,-0.02 -0,-0.04 -0.01,-0.05 -0,-0.01 -0,-0.03 -0,-0.04 0,-0.01 0,-0.03 0,-0.04 0,-0.02 0,-0.04 0.01,-0.05 0,-0.01 0.01,-0.02 0.01,-0.02 0.01,-0.01 0.02,-0.01 0.03,-0.02 0.01,-0 0.02,-0 0.03,-0l0.02 0c0.04,0 0.08,0 0.13,0 0.04,0 0.09,0 0.13,-0 0.02,0 0.04,0 0.05,0 0.01,0 0.02,0 0.04,0.01 0.01,0.01 0.02,0.02 0.03,0.03 0.01,0.01 0.03,0.04 0.04,0.06l0.2 0.31c0.01,0.02 0.02,0.03 0.03,0.05 0.01,0.01 0.02,0.03 0.02,0.04 0.01,0.01 0.02,0.03 0.03,0.05 0.01,0.02 0.02,0.04 0.04,0.06 0.02,0.03 0.04,0.06 0.06,0.09 0.01,0.02 0.02,0.04 0.03,0.05 0.01,0.01 0.02,0.03 0.02,0.04 0.01,0.01 0.01,0.03 0.02,0.05 0.01,0.02 0.02,0.04 0.03,0.06 0.01,0.01 0.01,0.02 0.03,0.05 0.01,0.02 0.02,0.03 0.03,0.03 0,0 0,-0 0.01,-0 0,-0 0.01,-0.01 0.01,-0.02 0,-0.01 0,-0.01 0,-0.02 -0,-0.01 -0,-0.02 -0,-0.03 -0,-0.01 -0,-0.02 -0,-0.04 -0,-0.02 -0,-0.04 -0,-0.06 0,-0.02 0,-0.03 0,-0.05 0,-0.02 0,-0.03 0,-0.05 0,-0.03 -0,-0.06 -0,-0.08 -0,-0.02 -0,-0.05 -0,-0.07l0 -0.04c0,-0.02 0,-0.04 0,-0.06 -0,-0.02 -0,-0.04 -0,-0.07 -0,-0.02 -0,-0.04 -0,-0.06 -0,-0.02 -0,-0.03 -0,-0.04l0 -0.02c0,-0.02 0,-0.05 0,-0.07 0,-0.02 0,-0.05 0,-0.07 0,-0.01 -0,-0.03 -0,-0.04 -0,-0.01 -0,-0.03 0,-0.04 0,-0.01 0,-0.03 0.01,-0.03 0.01,-0.01 0.02,-0.01 0.02,-0.01 0,0 0.01,0 0.02,0l0.09 0c0.01,0 0.02,0 0.03,0 0,0 0.01,-0 0.01,-0 0,-0 0.01,-0 0.01,-0 0,0 0.01,0 0.02,0 0.01,0 0.02,0 0.03,0 0.01,0 0.02,0 0.03,0l0.05 0c0.02,0 0.03,-0 0.05,-0 0.02,-0 0.04,0.01 0.05,0.02 0.01,0.01 0.01,0.01 0.02,0.03 0,0.01 0.01,0.03 0.01,0.05 0,0.01 -0,0.03 -0,0.04 -0,0.01 -0,0.04 -0,0.07l-0 0.09c0,0.03 0,0.04 0,0.05 0,0.01 0,0.02 0,0.03 0,0.01 0,0.02 0,0.04 0,0.02 0,0.04 0,0.08 0,0.01 -0,0.03 -0,0.06 -0,0.02 -0,0.06 -0,0.1 -0,0.03 -0,0.06 -0,0.08 0,0.02 -0,0.04 -0,0.07 -0,0.05 -0,0.08 -0,0.1 0,0.02 0,0.04 0,0.06 0,0.02 0,0.04 0,0.06 0,0.02 -0,0.07 -0,0.12l-0.01 0.23c0,0.03 0,0.07 0,0.09 0,0.03 0,0.05 0.01,0.07 0,0.02 0.01,0.04 0.01,0.06 0,0.02 0,0.04 0,0.06l0 0.09c0,0.01 -0,0.03 -0,0.04 -0,0.01 -0.01,0.02 -0.02,0.03 -0.01,0.01 -0.03,0.02 -0.06,0.02 -0.01,0 -0.03,-0 -0.05,-0 -0.02,-0 -0.04,-0 -0.05,-0l-0.1 0c-0.01,0 -0.03,-0 -0.06,-0.01 -0.03,-0 -0.05,-0.02 -0.06,-0.04l-0.11 -0.15c-0.03,-0.05 -0.06,-0.09 -0.07,-0.13 -0.02,-0.04 -0.04,-0.08 -0.07,-0.12l-0.07 -0.1z"/>
   <path class="fil4" d="M7.12 0.53c0,-0.02 -0,-0.04 -0,-0.05 -0,-0.01 -0,-0.02 -0,-0.02 -0,-0.01 -0,-0.01 -0,-0.02 -0,-0.01 -0,-0.03 -0,-0.05 0,-0.01 0,-0.02 0,-0.03 0,-0.01 -0,-0.02 -0,-0.03 0,-0 -0,-0.01 -0,-0.01 -0,-0 -0,-0.01 -0,-0.01l0 -0.03c0,-0.02 0,-0.05 0.01,-0.06 0,-0.02 0.01,-0.04 0.03,-0.05 0,-0 0.01,-0.01 0.02,-0.01 0.01,-0.01 0.02,-0.01 0.04,-0.01 0.01,-0 0.02,-0 0.03,0 0.01,0 0.02,0 0.03,0 0.01,0 0.03,-0 0.04,-0 0.01,-0 0.02,-0 0.04,-0 0.01,0 0.01,0 0.02,0 0,0 0.01,0 0.02,0 0.01,0 0.02,-0 0.04,-0 0.01,-0 0.02,-0 0.04,-0 0.02,0 0.04,0.01 0.06,0.03 0.02,0.02 0.03,0.04 0.05,0.08 0.01,0.01 0.02,0.02 0.03,0.05 0.02,0.02 0.03,0.05 0.05,0.08 0.02,0.03 0.03,0.05 0.05,0.08 0.02,0.02 0.03,0.04 0.03,0.05 0.01,0.01 0.02,0.03 0.04,0.05 0.02,0.02 0.03,0.04 0.05,0.07 0.02,0.02 0.03,0.05 0.05,0.07 0.02,0.02 0.03,0.04 0.05,0.06 0,0.01 0.01,0.01 0.02,0.03 0.01,0.01 0.02,0.02 0.03,0.04 0.01,0.01 0.02,0.02 0.04,0.03 0.01,0.01 0.02,0.01 0.03,0.01 0,0 0.01,-0 0.01,-0.01 0,-0 0.01,-0.01 0.02,-0.03 0.01,-0.01 0.01,-0.02 0.01,-0.02 0,-0.01 0.01,-0.01 0.02,-0.03 0,-0.01 0.01,-0.01 0.02,-0.02 0.01,-0.01 0.02,-0.02 0.03,-0.04l0.04 -0.06c0.01,-0.01 0.02,-0.03 0.03,-0.05 0.01,-0.02 0.02,-0.03 0.03,-0.05 0,-0.01 0.01,-0.01 0.01,-0.02 0.01,-0.01 0.01,-0.01 0.01,-0.02 0.01,-0.01 0.02,-0.03 0.03,-0.06 0.02,-0.03 0.03,-0.05 0.04,-0.07l0.09 -0.17c0,-0.01 0.01,-0.02 0.02,-0.03 0.01,-0.02 0.02,-0.03 0.02,-0.03 0,-0 0.01,-0.01 0.02,-0.02 0.01,-0.01 0.02,-0.01 0.03,-0.01l0.2 0.01c0.03,0 0.05,0 0.06,0 0.01,0 0.03,0 0.03,0.01 0.01,0 0.01,0.01 0.02,0.01 0,0 0.01,0.01 0.01,0.02 0,0 0.01,0.01 0.01,0.02 0.01,0.01 0.01,0.02 0.01,0.04l-0 0.07 0 0.26c0,0.04 -0,0.06 -0,0.08 -0,0.01 -0,0.03 -0,0.04 -0,0.01 -0,0.03 -0,0.04 -0,0.02 -0,0.05 0,0.09 0,0.05 0,0.1 0,0.13 0,0.03 0,0.05 0,0.07 0,0.02 -0,0.04 -0,0.05 -0,0.01 -0,0.03 -0,0.06 0,0.04 0,0.06 0,0.08 0,0.02 0,0.03 0,0.05 0,0.02 0,0.04 0,0.06 0,0.02 0,0.06 0,0.11l0 0.02c0,0.01 -0,0.03 -0,0.05 -0,0.02 -0,0.06 -0.01,0.11l-0 0.05c0,0.02 0,0.03 0,0.04 0,0.01 0,0.02 0,0.02 0,0.01 0,0.01 0,0.02 0,0.01 0,0.02 0,0.04l0 0.05c0,0.01 -0,0.03 -0,0.04 -0,0.02 -0.01,0.03 -0.01,0.05 -0.01,0.02 -0.01,0.03 -0.03,0.04 -0.01,0.01 -0.03,0.02 -0.05,0.02l-0.29 0c-0.01,0 -0.01,-0 -0.02,-0 -0.01,-0 -0.01,-0 -0.02,-0.01 -0.02,-0.01 -0.03,-0.03 -0.03,-0.07 0,-0.03 0,-0.06 0.01,-0.09 0,-0.03 0.01,-0.05 0.01,-0.07l-0 -0.48c0,-0.01 -0,-0.02 -0,-0.04 -0,-0.01 -0.01,-0.03 -0.02,-0.04 -0.01,-0.01 -0.02,-0.01 -0.02,-0.01 -0.01,0 -0.02,0 -0.03,0.01 -0.01,0.01 -0.02,0.01 -0.02,0.01 -0,0 -0.01,0.01 -0.02,0.02 -0.01,0.01 -0.01,0.02 -0.02,0.03 -0.01,0.01 -0.03,0.03 -0.05,0.06l-0.1 0.12c-0.01,0.02 -0.03,0.04 -0.03,0.05 -0.01,0.01 -0.02,0.02 -0.03,0.03 -0.01,0.01 -0.03,0.02 -0.04,0.02 -0.01,0 -0.02,-0 -0.03,-0 -0.01,-0 -0.02,-0.01 -0.03,-0.01 -0,-0 -0.01,-0.01 -0.03,-0.02 -0.01,-0.01 -0.03,-0.03 -0.06,-0.07l-0.07 -0.09c-0.01,-0.02 -0.02,-0.03 -0.03,-0.03 -0.01,-0.01 -0.01,-0.01 -0.02,-0.02 -0.01,-0.01 -0.01,-0.01 -0.02,-0.02 -0.01,-0.01 -0.02,-0.02 -0.04,-0.05l-0.03 -0.04c-0.01,-0.01 -0.02,-0.02 -0.03,-0.03 -0.01,-0.01 -0.03,-0.02 -0.04,-0.02 -0.02,0 -0.04,0.01 -0.04,0.03 -0,0.02 -0.01,0.04 -0.01,0.05 0,0.01 -0,0.02 -0,0.03 -0,0.01 -0,0.02 -0,0.03l0 0.03 -0.01 0.45c0,0.02 0,0.03 0,0.04 0,0.01 0,0.01 0,0.02 0,0.01 0,0.02 0,0.03 0,0.01 0,0.04 0,0.07 0,0.01 -0,0.02 -0,0.04 -0,0.01 -0.01,0.03 -0.02,0.04 -0.01,0 -0.01,0.01 -0.02,0.01 -0.01,0 -0.02,0 -0.03,0l-0.02 0c-0.01,-0 -0.02,-0 -0.02,-0.01 -0,-0 -0.02,-0 -0.03,0l-0.12 0.01c-0,0 -0.01,0 -0.02,0 -0.01,0 -0.02,0 -0.04,0 -0.01,0 -0.03,-0 -0.04,-0 -0.01,-0 -0.02,-0 -0.03,-0 -0,0 -0.01,-0 -0.01,-0 -0.01,-0 -0.01,-0.01 -0.02,-0.01 -0.01,-0.01 -0.01,-0.02 -0.02,-0.03 -0,-0.01 -0,-0.02 -0,-0.02l0 -0.05 0 -0.05 -0.01 -0.11c-0,-0.04 0,-0.07 0.01,-0.11 0.01,-0.03 0.01,-0.07 0.01,-0.09 0,-0.02 -0,-0.03 -0,-0.04 -0,-0.01 -0,-0.02 -0,-0.03 0,-0.01 -0,-0.02 -0,-0.04 -0,-0.02 -0,-0.04 -0,-0.06l0 -0.15c0,-0.04 0,-0.07 0,-0.09 0,-0.02 0,-0.03 0,-0.05 0,-0.01 0,-0.03 0,-0.05 0,-0.02 0,-0.05 0,-0.1l-0 -0.21 0 -0.14zm2.01 0.03c0,-0.02 0,-0.03 0,-0.05 0,-0.02 0,-0.03 0,-0.05 0,-0.01 -0,-0.01 -0,-0.02 -0,-0.01 -0,-0.01 -0,-0.02 0,-0.01 0,-0.02 0,-0.03 0,-0.01 -0,-0.02 -0,-0.03l-0.01 -0.07 -0 -0.05c0,-0.01 0,-0.02 0.01,-0.04 0,-0.02 0.02,-0.04 0.04,-0.05 0.01,-0.01 0.03,-0.02 0.04,-0.02 0.01,-0 0.02,-0.01 0.03,-0.01l0.24 -0c0.02,0 0.04,0.01 0.06,0.02 0.02,0.01 0.03,0.02 0.03,0.04 0.01,0.01 0.01,0.03 0.02,0.05 0,0.02 0,0.03 0,0.05 0,0.03 -0,0.05 -0,0.08 -0,0.02 -0,0.05 -0,0.08l-0 0.12c0,0.01 -0,0.02 -0,0.02 -0,0.01 -0,0.01 -0,0.02 0,0.02 0,0.04 0,0.05 0,0.02 0,0.04 0,0.06l-0 0.16 0 0.21c0,0.04 0,0.07 0,0.09 0,0.02 0,0.04 0,0.07l0 0.37c0,0.02 -0,0.04 -0,0.05 -0,0.02 -0,0.04 -0,0.05 0,0.01 0,0.02 0,0.02l0 0.04 0 0.06c0,0.03 0,0.05 0,0.07 0,0.02 -0,0.03 -0.02,0.05 -0.01,0.01 -0.01,0.01 -0.02,0.01 -0.01,0 -0.02,0 -0.03,0 -0.02,0 -0.04,-0 -0.05,-0 -0.01,-0 -0.04,-0 -0.07,-0l-0.2 0c-0.01,0 -0.02,-0 -0.03,-0.01 -0.01,-0.01 -0.01,-0.01 -0.02,-0.02 -0.01,-0.01 -0.01,-0.02 -0.01,-0.03 -0,-0.01 -0,-0.02 -0,-0.02 0,-0 0,-0.01 0,-0.01 0,-0 0,-0.01 0,-0.02l0 -0.03 0 -0.05c0,-0.02 0,-0.04 0,-0.07 0,-0.03 0,-0.07 0,-0.1 0,-0.03 0,-0.07 0,-0.09 0,-0.03 0,-0.05 0,-0.06l-0 -0.49 -0.01 -0.24 0 -0.15z"/>
   <g>
    <path class="fil4" d="M4.98 2.38c0,0.02 -0.01,0.05 -0.03,0.08 -0,0 -0,0 -0.01,0 -0,0 -0.01,0 -0.01,0 -0.04,0 -0.06,-0.01 -0.06,-0.03 0,-0 0,-0.01 0.01,-0.02 0.01,-0.01 0.01,-0.02 0.01,-0.03 0,-0.01 -0,-0.01 -0.01,-0.01 -0.02,0 -0.04,0.01 -0.06,0.03 -0.02,0.02 -0.03,0.04 -0.03,0.05 0,0.01 0.01,0.02 0.02,0.03 0.01,0.01 0.03,0.03 0.07,0.05 0.03,0.02 0.06,0.04 0.07,0.05 0.02,0.02 0.03,0.05 0.03,0.08 0,0.04 -0.02,0.07 -0.05,0.09 -0.03,0.02 -0.06,0.04 -0.1,0.04 -0.02,0 -0.04,-0 -0.05,-0.01 -0.04,-0.02 -0.06,-0.04 -0.06,-0.06 0,-0.01 0,-0.02 0.01,-0.03 0,-0.01 0.01,-0.02 0.02,-0.02 0.01,0 0.02,0.01 0.03,0.02 0.01,0.01 0.02,0.02 0.03,0.02 0.02,0 0.03,-0.01 0.05,-0.03 0.02,-0.02 0.03,-0.03 0.03,-0.05 0,-0.01 -0.02,-0.03 -0.05,-0.05 -0.04,-0.03 -0.07,-0.05 -0.08,-0.06 -0.03,-0.03 -0.05,-0.06 -0.05,-0.09 0,-0.04 0.02,-0.07 0.05,-0.1 0.03,-0.03 0.07,-0.04 0.11,-0.04 0.03,0 0.05,0.01 0.07,0.02 0.02,0.01 0.03,0.03 0.03,0.06zm0.35 0.08c0,0.08 -0.01,0.14 -0.02,0.2 -0.02,0.09 -0.06,0.13 -0.12,0.13 -0.04,0 -0.08,-0.02 -0.11,-0.07 -0.03,-0.04 -0.04,-0.09 -0.04,-0.15 0,-0.01 -0,-0.02 -0,-0.04 -0,-0.02 -0,-0.03 -0,-0.04 0,-0.03 0,-0.06 0.01,-0.1 0.01,-0.05 0.01,-0.08 0.02,-0.09 0.01,-0.01 0.01,-0.01 0.02,-0.01 0.04,0 0.05,0.02 0.05,0.05 0,-0.01 -0,0 -0,0.03 -0.01,0.06 -0.01,0.11 -0.01,0.15 0,0.12 0.01,0.17 0.04,0.17 0.01,0 0.02,-0.01 0.03,-0.02 0.02,-0.02 0.04,-0.06 0.04,-0.11 0,-0.03 0.01,-0.07 0.01,-0.12 0,-0.05 -0,-0.09 -0.01,-0.13 -0,-0.01 -0,-0.02 -0,-0.02l-0 -0 0 0c0,-0.01 0,-0.02 0.01,-0.02 0.01,0 0.02,0 0.03,0.01 0.02,0.02 0.04,0.04 0.04,0.07 0.01,0.02 0.01,0.05 0.01,0.08zm0.3 -0.08c0,0.02 -0.01,0.05 -0.03,0.08 -0,0 -0,0 -0.01,0 -0,0 -0.01,0 -0.01,0 -0.04,0 -0.06,-0.01 -0.06,-0.03 0,-0 0,-0.01 0.01,-0.02 0.01,-0.01 0.01,-0.02 0.01,-0.03 0,-0.01 -0,-0.01 -0.01,-0.01 -0.02,0 -0.04,0.01 -0.06,0.03 -0.02,0.02 -0.03,0.04 -0.03,0.05 0,0.01 0.01,0.02 0.02,0.03 0.01,0.01 0.03,0.03 0.07,0.05 0.03,0.02 0.06,0.04 0.07,0.05 0.02,0.02 0.03,0.05 0.03,0.08 0,0.04 -0.02,0.07 -0.05,0.09 -0.03,0.02 -0.06,0.04 -0.1,0.04 -0.02,0 -0.04,-0 -0.05,-0.01 -0.04,-0.02 -0.06,-0.04 -0.06,-0.06 0,-0.01 0,-0.02 0.01,-0.03 0,-0.01 0.01,-0.02 0.02,-0.02 0.01,0 0.02,0.01 0.03,0.02 0.01,0.01 0.02,0.02 0.03,0.02 0.02,0 0.03,-0.01 0.05,-0.03 0.02,-0.02 0.03,-0.03 0.03,-0.05 0,-0.01 -0.02,-0.03 -0.05,-0.05 -0.04,-0.03 -0.07,-0.05 -0.08,-0.06 -0.03,-0.03 -0.05,-0.06 -0.05,-0.09 0,-0.04 0.02,-0.07 0.05,-0.1 0.03,-0.03 0.07,-0.04 0.11,-0.04 0.03,0 0.05,0.01 0.07,0.02 0.02,0.01 0.03,0.03 0.03,0.06zm0.33 0.42c0,0.01 -0,0.01 -0.01,0.01 -0,0 -0.01,-0 -0.03,-0.01 -0.03,-0.01 -0.05,-0.03 -0.05,-0.04 -0.01,-0.01 -0.01,-0.03 -0.01,-0.07 0,-0.01 0,-0.03 0,-0.05 0,-0.02 0,-0.04 0,-0.05 0,-0.02 -0.01,-0.03 -0.03,-0.03 -0,0 -0.01,0 -0.02,0 -0.01,0 -0.02,0 -0.02,0 -0.01,0 -0.02,0 -0.02,0.01 -0,0 -0.01,0.01 -0.01,0.03 0,0 0,0.02 0,0.05 0,0.02 0,0.05 0,0.09 0,0 0,0.01 0,0.02 0,0.01 0,0.01 0,0.02 0,0.01 -0,0.01 -0.01,0.01 -0,0 -0,-0 -0.01,-0 -0.04,-0.01 -0.06,-0.02 -0.07,-0.04 -0.01,-0.01 -0.01,-0.04 -0.01,-0.08 0,-0 0,-0.01 0,-0.02 0,-0.01 0,-0.02 0,-0.02 0,-0.01 -0.01,-0.02 -0.02,-0.04 -0,-0.01 -0.01,-0.01 -0.01,-0.03 -0.01,-0.01 -0.01,-0.02 -0.01,-0.02 0,-0.01 0.01,-0.01 0.02,-0.01 0.02,-0 0.02,-0.01 0.03,-0.01 0,-0.01 0.01,-0.03 0.01,-0.08 0,-0.03 0,-0.07 0.01,-0.12 0,-0.01 0.01,-0.02 0.01,-0.02 0.01,0 0.02,0.01 0.04,0.03 0.02,0.02 0.02,0.03 0.02,0.04 0,-0.01 -0,0.01 -0,0.04 -0.01,0.05 -0.01,0.08 -0.01,0.08 0,0.01 0.01,0.02 0.02,0.02 0.01,0 0.02,-0 0.03,-0 0.02,-0 0.03,-0.01 0.03,-0.01 0,-0 0.01,-0.02 0.01,-0.06 0,-0.03 0.01,-0.06 0.01,-0.06l-0 -0 0 -0c0,-0.04 0.01,-0.05 0.02,-0.05 0.01,0 0.03,0.01 0.04,0.03 0.01,0.02 0.02,0.04 0.02,0.05 0,-0 -0,0.02 -0.01,0.06 -0.01,0.05 -0.01,0.1 -0.01,0.16 0,0.03 0,0.06 0,0.09 0,0.01 0,0.02 0.01,0.05 0,0.02 0.01,0.04 0.01,0.05zm0.16 -0.43c0,0.01 -0,0.03 -0,0.05 -0,0.03 -0.01,0.04 -0.01,0.05 -0,0.03 -0,0.07 -0,0.11 0,0.08 0,0.14 0.01,0.19 0,0.02 0,0.02 0,0.02 0,0.01 -0.01,0.01 -0.02,0.01 -0.01,-0 -0.02,-0.01 -0.05,-0.02 -0,0 -0,-0 -0,-0 -0.01,-0 -0.01,-0.01 -0.02,-0.01 -0.01,-0 -0.01,-0.01 -0.01,-0.02 -0,-0 -0,-0.04 -0,-0.1 0,-0.08 0,-0.18 0.01,-0.29 0,-0.01 0,-0.02 0,-0.04 0,-0.02 0.01,-0.03 0.01,-0.03 0.01,0 0.02,0.01 0.04,0.02 0.02,0.01 0.03,0.02 0.03,0.03 0,0.01 0,0.01 0,0.03zm0.59 0.43c0,0.01 -0.01,0.02 -0.03,0.02 -0.01,0.01 -0.03,0.01 -0.04,0.01 -0.01,0 -0.01,-0 -0.02,-0 -0.01,-0.01 -0.03,-0.03 -0.06,-0.07 -0.02,-0.03 -0.04,-0.06 -0.05,-0.08 -0.01,-0.02 -0.02,-0.04 -0.03,-0.07 -0,-0.01 -0.01,-0.02 -0.02,-0.02 -0,0 -0,0 -0.01,0.01 -0,0.01 -0,0.02 -0,0.05 -0,0.02 -0,0.04 0,0.07 0,0.03 0,0.05 0,0.06 0,0.02 -0,0.02 -0.01,0.02 -0.01,0 -0.02,-0 -0.04,-0.01 -0.02,-0.01 -0.03,-0.01 -0.04,-0.02 -0.01,-0.01 -0.01,-0.02 -0.01,-0.04 0,-0.06 0,-0.13 0.01,-0.2 0,-0.01 0,-0.02 0.01,-0.05 0,-0.02 0,-0.04 0,-0.05l0 -0 -0 -0 0 -0c-0.01,-0.01 -0.02,-0.03 -0.03,-0.04 -0.01,-0.02 -0.02,-0.03 -0.02,-0.04 0,-0.01 0.02,-0.02 0.05,-0.03 0.02,-0 0.04,-0.01 0.06,-0.01 0.04,0 0.08,0.01 0.11,0.03 0.04,0.02 0.06,0.05 0.08,0.09 0,0.01 0,0.02 0,0.03 0,0.02 -0.01,0.04 -0.02,0.06 -0.01,0.01 -0.03,0.02 -0.05,0.04 -0.01,0 -0.02,0.01 -0.03,0.02l-0 0c0,0.02 0.02,0.05 0.06,0.1 0.03,0.04 0.05,0.07 0.08,0.1 0.01,0.01 0.02,0.02 0.03,0.03 0,0.01 0,0.01 0,0.01zm-0.15 -0.38c0,-0.01 -0,-0.02 -0.02,-0.02 -0.01,-0.01 -0.02,-0.01 -0.03,-0.01l-0.01 0 -0 0c-0,0 -0.01,0 -0.01,0 -0.01,0 -0.01,0 -0.01,0 -0.01,0 -0.01,0 -0.01,0.01 0,-0 0,0 0,0.01l0 0.03c0,0.01 -0,0.01 -0,0.03 -0,0.01 -0,0.02 -0,0.03 0,0.02 0,0.03 0.01,0.03 0.01,0 0.03,-0.01 0.05,-0.04 0.02,-0.02 0.03,-0.04 0.03,-0.06zm0.45 0.39c-0,0 -0.01,0.01 -0.02,0.01 -0.01,0 -0.03,-0 -0.04,-0.01 -0.02,-0.01 -0.03,-0.01 -0.04,-0.02 -0,-0.02 -0,-0.05 -0.01,-0.09 -0,-0.03 -0.01,-0.04 -0.01,-0.04 0,0 -0,-0 -0,-0.01 -0,-0 -0,-0 -0.01,-0l-0 0 -0 0c-0,-0 -0.02,0 -0.04,0 -0.02,0 -0.03,0 -0.04,0.01 -0,0 -0.01,0.02 -0.01,0.06 -0,0.02 -0,0.05 -0.01,0.07 -0,0.01 -0.01,0.01 -0.02,0.01 -0.01,0 -0.03,-0 -0.04,-0.01 -0.02,-0.01 -0.03,-0.02 -0.03,-0.03 -0,-0 -0,-0.01 -0,-0.03 0,-0.02 0,-0.04 0,-0.06 -0.01,-0.01 -0.03,-0.03 -0.03,-0.06 0.01,-0.01 0.02,-0.01 0.03,-0.02 0.01,-0 0.02,-0.01 0.03,-0.01 0,-0 0.01,-0.02 0.02,-0.06 0.01,-0.05 0.02,-0.09 0.03,-0.1 0.01,-0.04 0.03,-0.06 0.04,-0.06 0.01,0 0.02,0 0.03,0.01 -0,-0.01 -0.01,-0.02 -0.01,-0.04 -0,-0 -0,-0 -0,-0.01 0,-0 0.01,-0.01 0.02,-0.01 0.02,0 0.04,0.01 0.05,0.02 0.02,0.02 0.05,0.1 0.07,0.23 0,0.03 0.02,0.11 0.04,0.25zm-0.12 -0.23c-0,-0.01 -0,-0.03 -0.01,-0.06 -0.01,-0.03 -0.01,-0.05 -0.01,-0.06l-0 -0c-0,-0 -0,-0 -0,-0l-0 0 -0 0c-0,0.01 -0.01,0.02 -0.01,0.03 -0.01,0.03 -0.02,0.06 -0.02,0.08 0,0 0,0 0,0.01 0,0 0,0 0.01,0l0.06 0zm0.6 0.23c0,0 -0,0 -0,0.01 -0,0 -0,0 -0.01,0 -0,0 -0.01,-0 -0.03,-0.01 -0.02,-0.01 -0.03,-0.01 -0.04,-0.01 -0,-0 -0.01,-0 -0.01,-0.01 -0.02,-0.02 -0.03,-0.11 -0.03,-0.27 -0,-0.02 -0,-0.03 -0.01,-0.03 -0.01,0 -0.01,0.01 -0.02,0.03 -0.03,0.09 -0.04,0.17 -0.04,0.24 -0,0.01 -0,0.02 -0.01,0.02 -0.01,0 -0.01,-0 -0.03,-0.01 -0.02,-0.01 -0.03,-0.02 -0.04,-0.02 -0.01,-0.01 -0.01,-0.02 -0.02,-0.04l-0.05 -0.19c-0,-0.01 -0.01,-0.02 -0.01,-0.03 -0.01,0 -0.01,0.04 -0.02,0.12 -0,0.05 -0,0.1 -0,0.13 0,0.02 -0,0.03 -0,0.04 -0,0.02 -0.01,0.02 -0.02,0.02 -0.01,0 -0.02,-0.01 -0.04,-0.02 -0.01,-0.01 -0.02,-0.03 -0.03,-0.04 -0,-0.01 -0,-0.02 -0,-0.03 0,-0.01 0,-0.02 0,-0.03 0,-0.02 0,-0.03 0.01,-0.04 0.01,-0.11 0.03,-0.21 0.06,-0.27 0,-0 0,-0 0,-0l0 -0c0,-0.01 -0,-0.02 -0.01,-0.03 -0.01,-0.02 -0.01,-0.03 -0.01,-0.03 0,-0 0.01,-0.01 0.02,-0.01 0.03,0 0.05,0.01 0.06,0.03 0.02,0.02 0.03,0.06 0.04,0.1 0,0.02 0.01,0.05 0.02,0.11 0,0.01 0,0.02 0.01,0.03l0 0c0,-0 0.01,-0 0.01,-0.01 0,-0 0,-0.01 0.01,-0.03 0.01,-0.04 0.02,-0.07 0.04,-0.11 0.03,-0.07 0.05,-0.1 0.07,-0.1 0.01,0 0.02,0.01 0.04,0.02 0.02,0.02 0.04,0.04 0.04,0.07 0,0 0,0.01 0,0.02 0,0.01 0,0.02 0,0.02 0,0.07 0,0.13 0.01,0.19 0.01,0.06 0.02,0.12 0.03,0.16 0,0.01 0,0.01 0,0.01zm0.3 -0.07c0,0.01 -0,0.02 -0.01,0.03 -0.05,0.02 -0.09,0.03 -0.13,0.03 -0.05,0 -0.08,-0.02 -0.09,-0.06 -0.01,-0.02 -0.01,-0.06 -0.01,-0.12 0,-0.08 0.01,-0.14 0.03,-0.19l0 -0 -0 -0c-0.03,-0.03 -0.04,-0.05 -0.04,-0.07 0,-0 0,-0 0,-0 0,-0 0,-0 0,-0 0.01,-0.02 0.06,-0.03 0.15,-0.03 0.01,0 0.02,0 0.02,0 0.01,0 0.03,0.01 0.04,0.03 0.02,0.02 0.03,0.03 0.03,0.04 0,0 -0,0.01 -0.01,0.01 -0.05,0 -0.08,0 -0.09,0.01 -0,0 -0.01,0 -0.01,0.01 -0,0 -0.01,0.02 -0.01,0.05 -0,0.03 -0.01,0.04 -0.01,0.05 0,0 0,0.01 0.01,0.01 0,0 0.01,0 0.02,0 0.01,-0 0.02,-0 0.02,-0 0.02,0 0.03,0 0.04,0.01 0.01,0 0.01,0.01 0.02,0.03 0,0.01 0.01,0.01 0.01,0.02 0,0.01 -0.02,0.02 -0.05,0.02 -0.02,0 -0.04,0 -0.06,0 -0.01,0.01 -0.01,0.04 -0.01,0.09 0,0.02 0,0.03 0,0.03 0,0.01 0.01,0.02 0.02,0.02 0.01,0 0.03,-0 0.06,-0.01 0.03,-0.01 0.04,-0.01 0.05,-0.01 0.01,0 0.02,0 0.03,0.01 0.01,0.01 0.01,0.02 0.01,0.03zm0.32 -0.36c0,0 -0,0.01 -0,0.02 -0,0.01 -0.01,0.04 -0.01,0.09 -0,0.04 -0.01,0.09 -0.01,0.13 0,0.03 0,0.06 0,0.09 0,0.01 0,0.02 0.01,0.05 0,0.02 0,0.03 0,0.04 0,0.01 -0,0.01 -0.01,0.01 -0.01,0 -0.02,-0.01 -0.04,-0.02 -0.02,-0.01 -0.03,-0.02 -0.03,-0.02 -0,-0 -0.01,-0.02 -0.03,-0.06 -0.05,-0.12 -0.08,-0.19 -0.1,-0.19l-0 0 -0 0 0 0c0,0 0,0.01 0,0.02 0,0.01 0,0.02 0,0.02 0,0.03 0,0.08 0,0.14 0,0.01 0,0.01 0,0.03 0,0.01 0,0.02 0,0.03 0,0.02 -0,0.03 -0.01,0.03 -0.01,0 -0.03,-0.01 -0.04,-0.02 -0.02,-0.02 -0.03,-0.03 -0.03,-0.04 -0,-0.01 -0,-0.02 -0,-0.03l0 -0c0,-0.03 0,-0.09 0,-0.16 0,-0.07 0,-0.12 0,-0.16 0,-0.01 -0.01,-0.02 -0.02,-0.05 -0.01,-0.02 -0.02,-0.04 -0.02,-0.04 0,-0.01 0.01,-0.01 0.02,-0.01 0.02,0 0.03,0 0.05,0.01 0.01,0 0.01,0.01 0.02,0.02 0.01,0.01 0.03,0.06 0.07,0.14 0.04,0.07 0.05,0.11 0.06,0.11 0,-0 0,-0 0,-0.01 0,-0.01 -0,-0.03 -0,-0.05 -0,-0.02 -0,-0.04 -0,-0.05 0,-0.06 0,-0.1 0,-0.13 0,-0.01 0,-0.02 0.01,-0.02 0.01,0 0.03,0.01 0.05,0.03 0.02,0.02 0.03,0.03 0.03,0.04zm0.52 0.08c0,0.01 -0,0.02 -0,0.03 -0.01,0.02 -0.02,0.05 -0.05,0.09 -0.03,0.04 -0.05,0.06 -0.07,0.06 -0.01,0 -0.02,-0.01 -0.03,-0.02 -0.01,-0.01 -0.02,-0.02 -0.02,-0.02 -0,0 -0,0 -0.01,0.01 -0,0.01 -0,0.02 -0,0.03 0,0.02 0,0.02 0,0.02 0,0.01 0,0.04 0,0.06 0,0.03 0,0.05 0,0.06 0,0.01 -0,0.01 -0.01,0.01 -0,0 -0.01,-0 -0.02,-0 -0.01,-0 -0.01,-0 -0.02,-0.01 -0.01,-0 -0.02,-0 -0.02,-0 -0.01,-0 -0.02,-0.01 -0.02,-0.01 -0.01,-0.01 -0.01,-0.05 -0.01,-0.12 0,-0.06 0,-0.12 0.01,-0.17 0.01,-0.04 0.01,-0.06 0.01,-0.06 0,-0.01 -0.01,-0.02 -0.02,-0.04 -0.01,-0.02 -0.02,-0.03 -0.02,-0.03 0,-0.01 0.02,-0.02 0.05,-0.03 0.03,-0.01 0.05,-0.01 0.07,-0.01 0.04,0 0.08,0.01 0.12,0.04 0.04,0.03 0.06,0.07 0.06,0.11zm-0.08 -0.02c0,-0.02 -0.02,-0.03 -0.05,-0.03 -0.02,0 -0.04,0 -0.04,0 -0,0 -0,0.01 -0,0.02 -0,0.01 -0,0.02 -0,0.02 -0.01,0.04 -0.01,0.06 -0.01,0.07 0,0.02 0,0.03 0.01,0.03 0.02,0 0.04,-0.01 0.06,-0.04 0.02,-0.03 0.03,-0.05 0.03,-0.07zm0.4 0.15c0,0.04 -0.01,0.08 -0.02,0.11 -0.02,0.04 -0.04,0.07 -0.07,0.09 -0.01,0.01 -0.02,0.01 -0.04,0.01 -0.02,0 -0.03,-0.01 -0.05,-0.02 -0.08,-0.05 -0.11,-0.13 -0.11,-0.24 0,-0.08 0.02,-0.15 0.07,-0.21 0.02,-0.02 0.03,-0.03 0.04,-0.03 0.01,0 0.02,0.01 0.04,0.02 0.02,0.02 0.03,0.02 0.03,0.02 0,0 0.01,-0 0.01,-0.01 0.01,-0 0.01,-0.01 0.02,-0.01 0.01,0 0.01,0.01 0.02,0.02 0.02,0.03 0.04,0.07 0.06,0.11 0.01,0.04 0.02,0.09 0.02,0.13zm-0.09 -0.05c0,-0.03 -0.01,-0.07 -0.02,-0.1l0 0c-0,-0.01 -0.01,-0.02 -0.02,-0.03 -0.01,-0.01 -0.02,-0.02 -0.03,-0.02l-0.01 0c-0.01,0.02 -0.03,0.05 -0.04,0.09 -0.01,0.03 -0.01,0.07 -0.01,0.1 0,0.02 0,0.05 0.01,0.08 0.01,0.04 0.02,0.06 0.04,0.06 0.02,0 0.04,-0.03 0.05,-0.08 0.01,-0.04 0.01,-0.07 0.01,-0.11zm0.49 0.26c-0,0 -0.01,0.01 -0.02,0.01 -0.01,0.01 -0.02,0.01 -0.03,0.01 -0.01,0 -0.02,-0 -0.04,-0.01 -0.03,-0.02 -0.07,-0.08 -0.12,-0.17 -0.01,-0.01 -0.02,-0.03 -0.03,-0.05 -0,-0 -0,-0 -0.01,-0l0 0c-0,0 -0,0 -0,0 -0,0.01 -0,0.05 -0.01,0.11 -0,0.06 -0,0.09 -0.01,0.1 -0,0 -0.01,0 -0.01,0 0,0 -0.01,-0 -0.03,-0 -0.02,-0 -0.03,-0.01 -0.04,-0.01 -0.01,-0.01 -0.01,-0.02 -0.01,-0.04 0,-0.01 0,-0.02 0,-0.03 0.01,-0.08 0.02,-0.19 0.02,-0.33 0,-0.01 0,-0.03 0,-0.04 0,-0.02 0.01,-0.03 0.01,-0.03 0.01,0 0.02,0 0.04,0.01 0.02,0.01 0.03,0.02 0.03,0.02 0,0 0,0.01 0,0.01 0,0.01 -0,0.04 -0,0.07 -0,0.03 -0,0.05 -0,0.06 0,0.01 0,0.01 0.01,0.01l0 0c-0,0 0,-0 0.01,-0 0.02,-0.02 0.05,-0.05 0.07,-0.09 0.01,-0.03 0.03,-0.07 0.05,-0.1l0 -0c0,0 0,-0 0,-0 0.01,0 0.02,0.01 0.03,0.02 0.01,0.01 0.02,0.03 0.02,0.04 0,0.02 -0.01,0.05 -0.03,0.09 -0.02,0.04 -0.04,0.07 -0.05,0.08 -0.01,0 -0.02,0.01 -0.03,0.02 0,0 0.01,0.02 0.02,0.03 0.01,0.02 0.02,0.03 0.02,0.03 0.02,0.02 0.03,0.05 0.06,0.09 0.01,0.01 0.02,0.03 0.03,0.04 0.01,0.01 0.03,0.03 0.04,0.05z"/>
    <path class="fil4" d="M9.59 2.73c0,0.01 -0,0.02 -0.01,0.03 -0.05,0.02 -0.09,0.03 -0.13,0.03 -0.05,0 -0.08,-0.02 -0.09,-0.06 -0.01,-0.02 -0.01,-0.06 -0.01,-0.12 0,-0.08 0.01,-0.14 0.03,-0.19l0 -0 -0 -0c-0.03,-0.03 -0.04,-0.05 -0.04,-0.07 0,-0 0,-0 0,-0 0,-0 0,-0 0,-0 0.01,-0.02 0.06,-0.03 0.15,-0.03 0.01,0 0.02,0 0.02,0 0.01,0 0.03,0.01 0.04,0.03 0.02,0.02 0.03,0.03 0.03,0.04 0,0 -0,0.01 -0.01,0.01 -0.05,0 -0.08,0 -0.09,0.01 -0,0 -0.01,0 -0.01,0.01 -0,0 -0.01,0.02 -0.01,0.05 -0,0.03 -0.01,0.04 -0.01,0.05 0,0 0,0.01 0.01,0.01 0,0 0.01,0 0.02,0 0.01,-0 0.02,-0 0.02,-0 0.02,0 0.03,0 0.04,0.01 0.01,0 0.01,0.01 0.02,0.03 0,0.01 0.01,0.01 0.01,0.02 0,0.01 -0.02,0.02 -0.05,0.02 -0.02,0 -0.04,0 -0.06,0 -0.01,0.01 -0.01,0.04 -0.01,0.09 0,0.02 0,0.03 0,0.03 0,0.01 0.01,0.02 0.02,0.02 0.01,0 0.03,-0 0.06,-0.01 0.03,-0.01 0.04,-0.01 0.05,-0.01 0.01,0 0.02,0 0.03,0.01 0.01,0.01 0.01,0.02 0.01,0.03z"/>
   </g>
  </g>
 </g>
</svg>
